%TF.GenerationSoftware,KiCad,Pcbnew,9.0.4*%
%TF.CreationDate,2025-11-18T22:29:26-03:00*%
%TF.ProjectId,FuzzFace,46757a7a-4661-4636-952e-6b696361645f,rev?*%
%TF.SameCoordinates,Original*%
%TF.FileFunction,Legend,Top*%
%TF.FilePolarity,Positive*%
%FSLAX46Y46*%
G04 Gerber Fmt 4.6, Leading zero omitted, Abs format (unit mm)*
G04 Created by KiCad (PCBNEW 9.0.4) date 2025-11-18 22:29:26*
%MOMM*%
%LPD*%
G01*
G04 APERTURE LIST*
%ADD10C,0.150000*%
%ADD11C,0.120000*%
G04 APERTURE END LIST*
D10*
X115954819Y-92933333D02*
X116669104Y-92933333D01*
X116669104Y-92933333D02*
X116811961Y-92980952D01*
X116811961Y-92980952D02*
X116907200Y-93076190D01*
X116907200Y-93076190D02*
X116954819Y-93219047D01*
X116954819Y-93219047D02*
X116954819Y-93314285D01*
X116954819Y-91933333D02*
X116954819Y-92504761D01*
X116954819Y-92219047D02*
X115954819Y-92219047D01*
X115954819Y-92219047D02*
X116097676Y-92314285D01*
X116097676Y-92314285D02*
X116192914Y-92409523D01*
X116192914Y-92409523D02*
X116240533Y-92504761D01*
X113383333Y-85034819D02*
X113050000Y-84558628D01*
X112811905Y-85034819D02*
X112811905Y-84034819D01*
X112811905Y-84034819D02*
X113192857Y-84034819D01*
X113192857Y-84034819D02*
X113288095Y-84082438D01*
X113288095Y-84082438D02*
X113335714Y-84130057D01*
X113335714Y-84130057D02*
X113383333Y-84225295D01*
X113383333Y-84225295D02*
X113383333Y-84368152D01*
X113383333Y-84368152D02*
X113335714Y-84463390D01*
X113335714Y-84463390D02*
X113288095Y-84511009D01*
X113288095Y-84511009D02*
X113192857Y-84558628D01*
X113192857Y-84558628D02*
X112811905Y-84558628D01*
X113716667Y-84034819D02*
X114335714Y-84034819D01*
X114335714Y-84034819D02*
X114002381Y-84415771D01*
X114002381Y-84415771D02*
X114145238Y-84415771D01*
X114145238Y-84415771D02*
X114240476Y-84463390D01*
X114240476Y-84463390D02*
X114288095Y-84511009D01*
X114288095Y-84511009D02*
X114335714Y-84606247D01*
X114335714Y-84606247D02*
X114335714Y-84844342D01*
X114335714Y-84844342D02*
X114288095Y-84939580D01*
X114288095Y-84939580D02*
X114240476Y-84987200D01*
X114240476Y-84987200D02*
X114145238Y-85034819D01*
X114145238Y-85034819D02*
X113859524Y-85034819D01*
X113859524Y-85034819D02*
X113764286Y-84987200D01*
X113764286Y-84987200D02*
X113716667Y-84939580D01*
X96804819Y-88716666D02*
X96328628Y-89049999D01*
X96804819Y-89288094D02*
X95804819Y-89288094D01*
X95804819Y-89288094D02*
X95804819Y-88907142D01*
X95804819Y-88907142D02*
X95852438Y-88811904D01*
X95852438Y-88811904D02*
X95900057Y-88764285D01*
X95900057Y-88764285D02*
X95995295Y-88716666D01*
X95995295Y-88716666D02*
X96138152Y-88716666D01*
X96138152Y-88716666D02*
X96233390Y-88764285D01*
X96233390Y-88764285D02*
X96281009Y-88811904D01*
X96281009Y-88811904D02*
X96328628Y-88907142D01*
X96328628Y-88907142D02*
X96328628Y-89288094D01*
X95900057Y-88335713D02*
X95852438Y-88288094D01*
X95852438Y-88288094D02*
X95804819Y-88192856D01*
X95804819Y-88192856D02*
X95804819Y-87954761D01*
X95804819Y-87954761D02*
X95852438Y-87859523D01*
X95852438Y-87859523D02*
X95900057Y-87811904D01*
X95900057Y-87811904D02*
X95995295Y-87764285D01*
X95995295Y-87764285D02*
X96090533Y-87764285D01*
X96090533Y-87764285D02*
X96233390Y-87811904D01*
X96233390Y-87811904D02*
X96804819Y-88383332D01*
X96804819Y-88383332D02*
X96804819Y-87764285D01*
X97483333Y-80314580D02*
X97435714Y-80362200D01*
X97435714Y-80362200D02*
X97292857Y-80409819D01*
X97292857Y-80409819D02*
X97197619Y-80409819D01*
X97197619Y-80409819D02*
X97054762Y-80362200D01*
X97054762Y-80362200D02*
X96959524Y-80266961D01*
X96959524Y-80266961D02*
X96911905Y-80171723D01*
X96911905Y-80171723D02*
X96864286Y-79981247D01*
X96864286Y-79981247D02*
X96864286Y-79838390D01*
X96864286Y-79838390D02*
X96911905Y-79647914D01*
X96911905Y-79647914D02*
X96959524Y-79552676D01*
X96959524Y-79552676D02*
X97054762Y-79457438D01*
X97054762Y-79457438D02*
X97197619Y-79409819D01*
X97197619Y-79409819D02*
X97292857Y-79409819D01*
X97292857Y-79409819D02*
X97435714Y-79457438D01*
X97435714Y-79457438D02*
X97483333Y-79505057D01*
X98340476Y-79743152D02*
X98340476Y-80409819D01*
X98102381Y-79362200D02*
X97864286Y-80076485D01*
X97864286Y-80076485D02*
X98483333Y-80076485D01*
X113392261Y-78050057D02*
X113297023Y-78002438D01*
X113297023Y-78002438D02*
X113201785Y-77907200D01*
X113201785Y-77907200D02*
X113058928Y-77764342D01*
X113058928Y-77764342D02*
X112963690Y-77716723D01*
X112963690Y-77716723D02*
X112868452Y-77716723D01*
X112916071Y-77954819D02*
X112820833Y-77907200D01*
X112820833Y-77907200D02*
X112725595Y-77811961D01*
X112725595Y-77811961D02*
X112677976Y-77621485D01*
X112677976Y-77621485D02*
X112677976Y-77288152D01*
X112677976Y-77288152D02*
X112725595Y-77097676D01*
X112725595Y-77097676D02*
X112820833Y-77002438D01*
X112820833Y-77002438D02*
X112916071Y-76954819D01*
X112916071Y-76954819D02*
X113106547Y-76954819D01*
X113106547Y-76954819D02*
X113201785Y-77002438D01*
X113201785Y-77002438D02*
X113297023Y-77097676D01*
X113297023Y-77097676D02*
X113344642Y-77288152D01*
X113344642Y-77288152D02*
X113344642Y-77621485D01*
X113344642Y-77621485D02*
X113297023Y-77811961D01*
X113297023Y-77811961D02*
X113201785Y-77907200D01*
X113201785Y-77907200D02*
X113106547Y-77954819D01*
X113106547Y-77954819D02*
X112916071Y-77954819D01*
X113725595Y-77050057D02*
X113773214Y-77002438D01*
X113773214Y-77002438D02*
X113868452Y-76954819D01*
X113868452Y-76954819D02*
X114106547Y-76954819D01*
X114106547Y-76954819D02*
X114201785Y-77002438D01*
X114201785Y-77002438D02*
X114249404Y-77050057D01*
X114249404Y-77050057D02*
X114297023Y-77145295D01*
X114297023Y-77145295D02*
X114297023Y-77240533D01*
X114297023Y-77240533D02*
X114249404Y-77383390D01*
X114249404Y-77383390D02*
X113677976Y-77954819D01*
X113677976Y-77954819D02*
X114297023Y-77954819D01*
X111698333Y-93659580D02*
X111650714Y-93707200D01*
X111650714Y-93707200D02*
X111507857Y-93754819D01*
X111507857Y-93754819D02*
X111412619Y-93754819D01*
X111412619Y-93754819D02*
X111269762Y-93707200D01*
X111269762Y-93707200D02*
X111174524Y-93611961D01*
X111174524Y-93611961D02*
X111126905Y-93516723D01*
X111126905Y-93516723D02*
X111079286Y-93326247D01*
X111079286Y-93326247D02*
X111079286Y-93183390D01*
X111079286Y-93183390D02*
X111126905Y-92992914D01*
X111126905Y-92992914D02*
X111174524Y-92897676D01*
X111174524Y-92897676D02*
X111269762Y-92802438D01*
X111269762Y-92802438D02*
X111412619Y-92754819D01*
X111412619Y-92754819D02*
X111507857Y-92754819D01*
X111507857Y-92754819D02*
X111650714Y-92802438D01*
X111650714Y-92802438D02*
X111698333Y-92850057D01*
X112031667Y-92754819D02*
X112650714Y-92754819D01*
X112650714Y-92754819D02*
X112317381Y-93135771D01*
X112317381Y-93135771D02*
X112460238Y-93135771D01*
X112460238Y-93135771D02*
X112555476Y-93183390D01*
X112555476Y-93183390D02*
X112603095Y-93231009D01*
X112603095Y-93231009D02*
X112650714Y-93326247D01*
X112650714Y-93326247D02*
X112650714Y-93564342D01*
X112650714Y-93564342D02*
X112603095Y-93659580D01*
X112603095Y-93659580D02*
X112555476Y-93707200D01*
X112555476Y-93707200D02*
X112460238Y-93754819D01*
X112460238Y-93754819D02*
X112174524Y-93754819D01*
X112174524Y-93754819D02*
X112079286Y-93707200D01*
X112079286Y-93707200D02*
X112031667Y-93659580D01*
X97783333Y-87404819D02*
X97450000Y-86928628D01*
X97211905Y-87404819D02*
X97211905Y-86404819D01*
X97211905Y-86404819D02*
X97592857Y-86404819D01*
X97592857Y-86404819D02*
X97688095Y-86452438D01*
X97688095Y-86452438D02*
X97735714Y-86500057D01*
X97735714Y-86500057D02*
X97783333Y-86595295D01*
X97783333Y-86595295D02*
X97783333Y-86738152D01*
X97783333Y-86738152D02*
X97735714Y-86833390D01*
X97735714Y-86833390D02*
X97688095Y-86881009D01*
X97688095Y-86881009D02*
X97592857Y-86928628D01*
X97592857Y-86928628D02*
X97211905Y-86928628D01*
X98688095Y-86404819D02*
X98211905Y-86404819D01*
X98211905Y-86404819D02*
X98164286Y-86881009D01*
X98164286Y-86881009D02*
X98211905Y-86833390D01*
X98211905Y-86833390D02*
X98307143Y-86785771D01*
X98307143Y-86785771D02*
X98545238Y-86785771D01*
X98545238Y-86785771D02*
X98640476Y-86833390D01*
X98640476Y-86833390D02*
X98688095Y-86881009D01*
X98688095Y-86881009D02*
X98735714Y-86976247D01*
X98735714Y-86976247D02*
X98735714Y-87214342D01*
X98735714Y-87214342D02*
X98688095Y-87309580D01*
X98688095Y-87309580D02*
X98640476Y-87357200D01*
X98640476Y-87357200D02*
X98545238Y-87404819D01*
X98545238Y-87404819D02*
X98307143Y-87404819D01*
X98307143Y-87404819D02*
X98211905Y-87357200D01*
X98211905Y-87357200D02*
X98164286Y-87309580D01*
X106738095Y-78004819D02*
X106738095Y-77004819D01*
X106738095Y-77481009D02*
X107309523Y-77481009D01*
X107309523Y-78004819D02*
X107309523Y-77004819D01*
X108309523Y-78004819D02*
X107738095Y-78004819D01*
X108023809Y-78004819D02*
X108023809Y-77004819D01*
X108023809Y-77004819D02*
X107928571Y-77147676D01*
X107928571Y-77147676D02*
X107833333Y-77242914D01*
X107833333Y-77242914D02*
X107738095Y-77290533D01*
X117804761Y-82350057D02*
X117709523Y-82302438D01*
X117709523Y-82302438D02*
X117614285Y-82207200D01*
X117614285Y-82207200D02*
X117471428Y-82064342D01*
X117471428Y-82064342D02*
X117376190Y-82016723D01*
X117376190Y-82016723D02*
X117280952Y-82016723D01*
X117328571Y-82254819D02*
X117233333Y-82207200D01*
X117233333Y-82207200D02*
X117138095Y-82111961D01*
X117138095Y-82111961D02*
X117090476Y-81921485D01*
X117090476Y-81921485D02*
X117090476Y-81588152D01*
X117090476Y-81588152D02*
X117138095Y-81397676D01*
X117138095Y-81397676D02*
X117233333Y-81302438D01*
X117233333Y-81302438D02*
X117328571Y-81254819D01*
X117328571Y-81254819D02*
X117519047Y-81254819D01*
X117519047Y-81254819D02*
X117614285Y-81302438D01*
X117614285Y-81302438D02*
X117709523Y-81397676D01*
X117709523Y-81397676D02*
X117757142Y-81588152D01*
X117757142Y-81588152D02*
X117757142Y-81921485D01*
X117757142Y-81921485D02*
X117709523Y-82111961D01*
X117709523Y-82111961D02*
X117614285Y-82207200D01*
X117614285Y-82207200D02*
X117519047Y-82254819D01*
X117519047Y-82254819D02*
X117328571Y-82254819D01*
X118709523Y-82254819D02*
X118138095Y-82254819D01*
X118423809Y-82254819D02*
X118423809Y-81254819D01*
X118423809Y-81254819D02*
X118328571Y-81397676D01*
X118328571Y-81397676D02*
X118233333Y-81492914D01*
X118233333Y-81492914D02*
X118138095Y-81540533D01*
X121054819Y-88754166D02*
X120578628Y-89087499D01*
X121054819Y-89325594D02*
X120054819Y-89325594D01*
X120054819Y-89325594D02*
X120054819Y-88944642D01*
X120054819Y-88944642D02*
X120102438Y-88849404D01*
X120102438Y-88849404D02*
X120150057Y-88801785D01*
X120150057Y-88801785D02*
X120245295Y-88754166D01*
X120245295Y-88754166D02*
X120388152Y-88754166D01*
X120388152Y-88754166D02*
X120483390Y-88801785D01*
X120483390Y-88801785D02*
X120531009Y-88849404D01*
X120531009Y-88849404D02*
X120578628Y-88944642D01*
X120578628Y-88944642D02*
X120578628Y-89325594D01*
X121054819Y-87801785D02*
X121054819Y-88373213D01*
X121054819Y-88087499D02*
X120054819Y-88087499D01*
X120054819Y-88087499D02*
X120197676Y-88182737D01*
X120197676Y-88182737D02*
X120292914Y-88277975D01*
X120292914Y-88277975D02*
X120340533Y-88373213D01*
D11*
%TO.C,J1*%
X99390000Y-90890000D02*
X99390000Y-92610000D01*
X99390000Y-92610000D02*
X115610000Y-92610000D01*
X100140000Y-90416856D02*
X100140000Y-90890000D01*
X100140000Y-96810000D02*
X100140000Y-92610000D01*
X100860000Y-90416856D02*
X100860000Y-90890000D01*
X100860000Y-92610000D02*
X100860000Y-96810000D01*
X100860000Y-96810000D02*
X100140000Y-96810000D01*
X101500000Y-90890000D02*
X101500000Y-92610000D01*
X102140000Y-90416856D02*
X102140000Y-90890000D01*
X102140000Y-96810000D02*
X102140000Y-92610000D01*
X102860000Y-90416856D02*
X102860000Y-90890000D01*
X102860000Y-92610000D02*
X102860000Y-96810000D01*
X102860000Y-96810000D02*
X102140000Y-96810000D01*
X103500000Y-90890000D02*
X103500000Y-92610000D01*
X104140000Y-90416856D02*
X104140000Y-90890000D01*
X104140000Y-96810000D02*
X104140000Y-92610000D01*
X104860000Y-90416856D02*
X104860000Y-90890000D01*
X104860000Y-92610000D02*
X104860000Y-96810000D01*
X104860000Y-96810000D02*
X104140000Y-96810000D01*
X105500000Y-90890000D02*
X105500000Y-92610000D01*
X106140000Y-90416856D02*
X106140000Y-90890000D01*
X106140000Y-96810000D02*
X106140000Y-92610000D01*
X106860000Y-90416856D02*
X106860000Y-90890000D01*
X106860000Y-92610000D02*
X106860000Y-96810000D01*
X106860000Y-96810000D02*
X106140000Y-96810000D01*
X107500000Y-90890000D02*
X107500000Y-92610000D01*
X108140000Y-90416856D02*
X108140000Y-90890000D01*
X108140000Y-96810000D02*
X108140000Y-92610000D01*
X108860000Y-90416856D02*
X108860000Y-90890000D01*
X108860000Y-92610000D02*
X108860000Y-96810000D01*
X108860000Y-96810000D02*
X108140000Y-96810000D01*
X109500000Y-90890000D02*
X109500000Y-92610000D01*
X110140000Y-90416856D02*
X110140000Y-90890000D01*
X110140000Y-96810000D02*
X110140000Y-92610000D01*
X110860000Y-90416856D02*
X110860000Y-90890000D01*
X110860000Y-92610000D02*
X110860000Y-96810000D01*
X110860000Y-96810000D02*
X110140000Y-96810000D01*
X111500000Y-90890000D02*
X111500000Y-92610000D01*
X112140000Y-90416856D02*
X112140000Y-90890000D01*
X112140000Y-96810000D02*
X112140000Y-92610000D01*
X112860000Y-90416856D02*
X112860000Y-90890000D01*
X112860000Y-92610000D02*
X112860000Y-96810000D01*
X112860000Y-96810000D02*
X112140000Y-96810000D01*
X113500000Y-90890000D02*
X113500000Y-92610000D01*
X114140000Y-90485000D02*
X114140000Y-90890000D01*
X114500000Y-88500000D02*
X115500000Y-88500000D01*
X114860000Y-90485000D02*
X114860000Y-90890000D01*
X115500000Y-88500000D02*
X115500000Y-89500000D01*
X115610000Y-90890000D02*
X99390000Y-90890000D01*
X115610000Y-92610000D02*
X115610000Y-90890000D01*
X114860000Y-92610000D02*
X114140000Y-92610000D01*
X114140000Y-96810000D01*
X114860000Y-96810000D01*
X114860000Y-92610000D01*
G36*
X114860000Y-92610000D02*
G01*
X114140000Y-92610000D01*
X114140000Y-96810000D01*
X114860000Y-96810000D01*
X114860000Y-92610000D01*
G37*
%TO.C,R3*%
X114277064Y-81840000D02*
X112822936Y-81840000D01*
X114277064Y-83660000D02*
X112822936Y-83660000D01*
%TO.C,R2*%
X97265000Y-88777064D02*
X97265000Y-88322936D01*
X98735000Y-88777064D02*
X98735000Y-88322936D01*
%TO.C,C4*%
X94940000Y-82375000D02*
X95630000Y-82375000D01*
X100360000Y-82375000D02*
X99670000Y-82375000D01*
X95630000Y-80955000D02*
X99670000Y-80955000D01*
X99670000Y-83795000D01*
X95630000Y-83795000D01*
X95630000Y-80955000D01*
%TO.C,Q2*%
X113487500Y-78340000D02*
X112837500Y-78340000D01*
X113487500Y-78340000D02*
X114137500Y-78340000D01*
X113487500Y-81460000D02*
X112837500Y-81460000D01*
X113487500Y-81460000D02*
X114137500Y-81460000D01*
X112325000Y-78390000D02*
X112085000Y-78060000D01*
X112565000Y-78060000D01*
X112325000Y-78390000D01*
G36*
X112325000Y-78390000D02*
G01*
X112085000Y-78060000D01*
X112565000Y-78060000D01*
X112325000Y-78390000D01*
G37*
%TO.C,C3*%
X109827500Y-87460000D02*
X114222500Y-87460000D01*
X114222500Y-84440000D02*
X109827500Y-84440000D01*
X114222500Y-87460000D02*
X114222500Y-84440000D01*
%TO.C,R5*%
X98177064Y-84565000D02*
X97722936Y-84565000D01*
X98177064Y-86035000D02*
X97722936Y-86035000D01*
%TO.C,Q1*%
X117900000Y-82640000D02*
X117250000Y-82640000D01*
X117900000Y-82640000D02*
X118550000Y-82640000D01*
X117900000Y-85760000D02*
X117250000Y-85760000D01*
X117900000Y-85760000D02*
X118550000Y-85760000D01*
X116737500Y-82690000D02*
X116497500Y-82360000D01*
X116977500Y-82360000D01*
X116737500Y-82690000D01*
G36*
X116737500Y-82690000D02*
G01*
X116497500Y-82360000D01*
X116977500Y-82360000D01*
X116737500Y-82690000D01*
G37*
%TO.C,R1*%
X118215000Y-88360436D02*
X118215000Y-88814564D01*
X119685000Y-88360436D02*
X119685000Y-88814564D01*
%TD*%
M02*
